<svg width="255" height="70" viewBox="0 0 255 70" fill="none" xmlns="http://www.w3.org/2000/svg">
<rect x="0.5" y="0.5" width="254" height="69" stroke="#7875FE"/>
<path d="M93.123 27.2812V41.5H91.2383V27.2812H93.123ZM101.883 27.2812L95.7109 35.1035H92.3711L92.0781 33.541H94.5879L99.5488 27.2812H101.883ZM99.9883 41.5L94.6465 34.8594L95.7012 33.209L102.293 41.5H99.9883ZM109.959 39.6934V34.2539C109.959 33.8372 109.874 33.4759 109.705 33.1699C109.542 32.8574 109.295 32.6165 108.963 32.4473C108.631 32.278 108.221 32.1934 107.732 32.1934C107.277 32.1934 106.876 32.2715 106.531 32.4277C106.193 32.584 105.926 32.7891 105.73 33.043C105.542 33.2969 105.447 33.5703 105.447 33.8633H103.641C103.641 33.4857 103.738 33.1113 103.934 32.7402C104.129 32.3691 104.409 32.0339 104.773 31.7344C105.145 31.4284 105.587 31.1875 106.102 31.0117C106.622 30.8294 107.202 30.7383 107.84 30.7383C108.608 30.7383 109.285 30.8685 109.871 31.1289C110.464 31.3893 110.926 31.7832 111.258 32.3105C111.596 32.8314 111.766 33.4857 111.766 34.2734V39.1953C111.766 39.5469 111.795 39.9212 111.854 40.3184C111.919 40.7155 112.013 41.0573 112.137 41.3438V41.5H110.252C110.161 41.2917 110.089 41.015 110.037 40.6699C109.985 40.3184 109.959 39.9928 109.959 39.6934ZM110.271 35.0938L110.291 36.3633H108.465C107.951 36.3633 107.492 36.4056 107.088 36.4902C106.684 36.5684 106.346 36.6888 106.072 36.8516C105.799 37.0143 105.59 37.2194 105.447 37.4668C105.304 37.7077 105.232 37.9909 105.232 38.3164C105.232 38.6484 105.307 38.9512 105.457 39.2246C105.607 39.498 105.831 39.7161 106.131 39.8789C106.437 40.0352 106.811 40.1133 107.254 40.1133C107.807 40.1133 108.296 39.9961 108.719 39.7617C109.142 39.5273 109.477 39.2409 109.725 38.9023C109.979 38.5638 110.115 38.235 110.135 37.916L110.906 38.7852C110.861 39.0586 110.737 39.3613 110.535 39.6934C110.333 40.0254 110.063 40.3444 109.725 40.6504C109.393 40.9499 108.995 41.2005 108.533 41.4023C108.077 41.5977 107.563 41.6953 106.99 41.6953C106.274 41.6953 105.646 41.5553 105.105 41.2754C104.572 40.9954 104.155 40.6211 103.855 40.1523C103.562 39.6771 103.416 39.1465 103.416 38.5605C103.416 37.9941 103.527 37.4961 103.748 37.0664C103.969 36.6302 104.288 36.2689 104.705 35.9824C105.122 35.6895 105.623 35.4681 106.209 35.3184C106.795 35.1686 107.449 35.0938 108.172 35.0938H110.271ZM118.758 30.9336V41.5H116.941V30.9336H118.758ZM122.303 30.9336V32.3984H113.465V30.9336H122.303ZM130.154 39.6934V34.2539C130.154 33.8372 130.07 33.4759 129.9 33.1699C129.738 32.8574 129.49 32.6165 129.158 32.4473C128.826 32.278 128.416 32.1934 127.928 32.1934C127.472 32.1934 127.072 32.2715 126.727 32.4277C126.388 32.584 126.121 32.7891 125.926 33.043C125.737 33.2969 125.643 33.5703 125.643 33.8633H123.836C123.836 33.4857 123.934 33.1113 124.129 32.7402C124.324 32.3691 124.604 32.0339 124.969 31.7344C125.34 31.4284 125.783 31.1875 126.297 31.0117C126.818 30.8294 127.397 30.7383 128.035 30.7383C128.803 30.7383 129.48 30.8685 130.066 31.1289C130.659 31.3893 131.121 31.7832 131.453 32.3105C131.792 32.8314 131.961 33.4857 131.961 34.2734V39.1953C131.961 39.5469 131.99 39.9212 132.049 40.3184C132.114 40.7155 132.208 41.0573 132.332 41.3438V41.5H130.447C130.356 41.2917 130.285 41.015 130.232 40.6699C130.18 40.3184 130.154 39.9928 130.154 39.6934ZM130.467 35.0938L130.486 36.3633H128.66C128.146 36.3633 127.687 36.4056 127.283 36.4902C126.88 36.5684 126.541 36.6888 126.268 36.8516C125.994 37.0143 125.786 37.2194 125.643 37.4668C125.499 37.7077 125.428 37.9909 125.428 38.3164C125.428 38.6484 125.503 38.9512 125.652 39.2246C125.802 39.498 126.027 39.7161 126.326 39.8789C126.632 40.0352 127.007 40.1133 127.449 40.1133C128.003 40.1133 128.491 39.9961 128.914 39.7617C129.337 39.5273 129.673 39.2409 129.92 38.9023C130.174 38.5638 130.311 38.235 130.33 37.916L131.102 38.7852C131.056 39.0586 130.932 39.3613 130.73 39.6934C130.529 40.0254 130.258 40.3444 129.92 40.6504C129.588 40.9499 129.191 41.2005 128.729 41.4023C128.273 41.5977 127.758 41.6953 127.186 41.6953C126.469 41.6953 125.841 41.5553 125.301 41.2754C124.767 40.9954 124.35 40.6211 124.051 40.1523C123.758 39.6771 123.611 39.1465 123.611 38.5605C123.611 37.9941 123.722 37.4961 123.943 37.0664C124.165 36.6302 124.484 36.2689 124.9 35.9824C125.317 35.6895 125.818 35.4681 126.404 35.3184C126.99 35.1686 127.645 35.0938 128.367 35.0938H130.467ZM141.863 30.9336V32.4277H136.756V30.9336H141.863ZM143.455 30.9336V41.5H141.648V30.9336H143.455ZM136.316 30.9336H138.133L137.859 36.0312C137.814 36.819 137.739 37.5156 137.635 38.1211C137.537 38.7201 137.4 39.2344 137.225 39.6641C137.055 40.0938 136.84 40.4453 136.58 40.7188C136.326 40.9857 136.02 41.1842 135.662 41.3145C135.304 41.4382 134.891 41.5 134.422 41.5H133.855V39.9082L134.246 39.8789C134.526 39.8594 134.764 39.7943 134.959 39.6836C135.161 39.5729 135.33 39.4102 135.467 39.1953C135.604 38.974 135.714 38.6908 135.799 38.3457C135.89 38.0007 135.958 37.5905 136.004 37.1152C136.056 36.64 136.095 36.0866 136.121 35.4551L136.316 30.9336ZM145.887 36.334V36.1094C145.887 35.3477 145.997 34.6413 146.219 33.9902C146.44 33.3327 146.759 32.763 147.176 32.2812C147.592 31.793 148.097 31.4154 148.689 31.1484C149.282 30.875 149.946 30.7383 150.682 30.7383C151.424 30.7383 152.091 30.875 152.684 31.1484C153.283 31.4154 153.79 31.793 154.207 32.2812C154.63 32.763 154.952 33.3327 155.174 33.9902C155.395 34.6413 155.506 35.3477 155.506 36.1094V36.334C155.506 37.0957 155.395 37.8021 155.174 38.4531C154.952 39.1042 154.63 39.6738 154.207 40.1621C153.79 40.6439 153.286 41.0215 152.693 41.2949C152.107 41.5618 151.443 41.6953 150.701 41.6953C149.959 41.6953 149.292 41.5618 148.699 41.2949C148.107 41.0215 147.599 40.6439 147.176 40.1621C146.759 39.6738 146.44 39.1042 146.219 38.4531C145.997 37.8021 145.887 37.0957 145.887 36.334ZM147.693 36.1094V36.334C147.693 36.8613 147.755 37.3594 147.879 37.8281C148.003 38.2904 148.188 38.7005 148.436 39.0586C148.689 39.4167 149.005 39.6999 149.383 39.9082C149.76 40.11 150.2 40.2109 150.701 40.2109C151.196 40.2109 151.629 40.11 152 39.9082C152.378 39.6999 152.69 39.4167 152.938 39.0586C153.185 38.7005 153.37 38.2904 153.494 37.8281C153.624 37.3594 153.689 36.8613 153.689 36.334V36.1094C153.689 35.5885 153.624 35.097 153.494 34.6348C153.37 34.166 153.182 33.7526 152.928 33.3945C152.68 33.0299 152.368 32.7435 151.99 32.5352C151.619 32.3268 151.183 32.2227 150.682 32.2227C150.187 32.2227 149.751 32.3268 149.373 32.5352C149.002 32.7435 148.689 33.0299 148.436 33.3945C148.188 33.7526 148.003 34.166 147.879 34.6348C147.755 35.097 147.693 35.5885 147.693 36.1094ZM164.598 30.9336V32.4277H159.715V41.5H157.908V30.9336H164.598Z" fill="#7875FE"/>
</svg>
